<svg width="926" height="155" viewBox="0 0 926 155" fill="none" xmlns="http://www.w3.org/2000/svg">
<rect y="79" width="926" height="70" rx="2" fill="#FBCFE8"/>
<path d="M17.0909 124V30.9091H79.8182V47.1364H36.7727V69.3182H76.5909V85.5455H36.7727V107.773H80V124H17.0909ZM114.466 30.9091V124H95.1023V30.9091H114.466ZM161.795 125.364C154.614 125.364 148.432 123.909 143.25 121C138.098 118.061 134.129 113.909 131.341 108.545C128.553 103.152 127.159 96.7727 127.159 89.4091C127.159 82.2273 128.553 75.9242 131.341 70.5C134.129 65.0758 138.053 60.8485 143.114 57.8182C148.205 54.7879 154.174 53.2727 161.023 53.2727C165.629 53.2727 169.917 54.0152 173.886 55.5C177.886 56.9545 181.371 59.1515 184.341 62.0909C187.341 65.0303 189.674 68.7273 191.341 73.1818C193.008 77.6061 193.841 82.7879 193.841 88.7273V94.0455H134.886V82.0455H175.614C175.614 79.2576 175.008 76.7879 173.795 74.6364C172.583 72.4848 170.902 70.803 168.75 69.5909C166.629 68.3485 164.159 67.7273 161.341 67.7273C158.402 67.7273 155.795 68.4091 153.523 69.7727C151.28 71.1061 149.523 72.9091 148.25 75.1818C146.977 77.4242 146.326 79.9242 146.295 82.6818V94.0909C146.295 97.5455 146.932 100.53 148.205 103.045C149.508 105.561 151.341 107.5 153.705 108.864C156.068 110.227 158.871 110.909 162.114 110.909C164.265 110.909 166.235 110.606 168.023 110C169.811 109.394 171.341 108.485 172.614 107.273C173.886 106.061 174.856 104.576 175.523 102.818L193.432 104C192.523 108.303 190.659 112.061 187.841 115.273C185.053 118.455 181.447 120.939 177.023 122.727C172.629 124.485 167.553 125.364 161.795 125.364ZM269.693 54.1818L245.284 124H223.466L199.057 54.1818H219.511L234.011 104.136H234.739L249.193 54.1818H269.693ZM297.636 125.318C293.182 125.318 289.212 124.545 285.727 123C282.242 121.424 279.485 119.106 277.455 116.045C275.455 112.955 274.455 109.106 274.455 104.5C274.455 100.621 275.167 97.3636 276.591 94.7273C278.015 92.0909 279.955 89.9697 282.409 88.3636C284.864 86.7576 287.652 85.5455 290.773 84.7273C293.924 83.9091 297.227 83.3333 300.682 83C304.742 82.5758 308.015 82.1818 310.5 81.8182C312.985 81.4242 314.788 80.8485 315.909 80.0909C317.03 79.3333 317.591 78.2121 317.591 76.7273V76.4545C317.591 73.5758 316.682 71.3485 314.864 69.7727C313.076 68.197 310.53 67.4091 307.227 67.4091C303.742 67.4091 300.97 68.1818 298.909 69.7273C296.848 71.2424 295.485 73.1515 294.818 75.4545L276.909 74C277.818 69.7576 279.606 66.0909 282.273 63C284.939 59.8788 288.379 57.4848 292.591 55.8182C296.833 54.1212 301.742 53.2727 307.318 53.2727C311.197 53.2727 314.909 53.7273 318.455 54.6364C322.03 55.5455 325.197 56.9545 327.955 58.8636C330.742 60.7727 332.939 63.2273 334.545 66.2273C336.152 69.197 336.955 72.7576 336.955 76.9091V124H318.591V114.318H318.045C316.924 116.5 315.424 118.424 313.545 120.091C311.667 121.727 309.409 123.015 306.773 123.955C304.136 124.864 301.091 125.318 297.636 125.318ZM303.182 111.955C306.03 111.955 308.545 111.394 310.727 110.273C312.909 109.121 314.621 107.576 315.864 105.636C317.106 103.697 317.727 101.5 317.727 99.0455V91.6364C317.121 92.0303 316.288 92.3939 315.227 92.7273C314.197 93.0303 313.03 93.3182 311.727 93.5909C310.424 93.8333 309.121 94.0606 307.818 94.2727C306.515 94.4545 305.333 94.6212 304.273 94.7727C302 95.1061 300.015 95.6364 298.318 96.3636C296.621 97.0909 295.303 98.0758 294.364 99.3182C293.424 100.53 292.955 102.045 292.955 103.864C292.955 106.5 293.909 108.515 295.818 109.909C297.758 111.273 300.212 111.955 303.182 111.955ZM389.114 54.1818V68.7273H347.068V54.1818H389.114ZM356.614 37.4545H375.977V102.545C375.977 104.333 376.25 105.727 376.795 106.727C377.341 107.697 378.098 108.379 379.068 108.773C380.068 109.167 381.22 109.364 382.523 109.364C383.432 109.364 384.341 109.288 385.25 109.136C386.159 108.955 386.856 108.818 387.341 108.727L390.386 123.136C389.417 123.439 388.053 123.788 386.295 124.182C384.538 124.606 382.402 124.864 379.886 124.955C375.22 125.136 371.129 124.515 367.614 123.091C364.129 121.667 361.417 119.455 359.477 116.455C357.538 113.455 356.583 109.667 356.614 105.091V37.4545ZM432.795 125.364C425.614 125.364 419.432 123.909 414.25 121C409.098 118.061 405.129 113.909 402.341 108.545C399.553 103.152 398.159 96.7727 398.159 89.4091C398.159 82.2273 399.553 75.9242 402.341 70.5C405.129 65.0758 409.053 60.8485 414.114 57.8182C419.205 54.7879 425.174 53.2727 432.023 53.2727C436.629 53.2727 440.917 54.0152 444.886 55.5C448.886 56.9545 452.371 59.1515 455.341 62.0909C458.341 65.0303 460.674 68.7273 462.341 73.1818C464.008 77.6061 464.841 82.7879 464.841 88.7273V94.0455H405.886V82.0455H446.614C446.614 79.2576 446.008 76.7879 444.795 74.6364C443.583 72.4848 441.902 70.803 439.75 69.5909C437.629 68.3485 435.159 67.7273 432.341 67.7273C429.402 67.7273 426.795 68.4091 424.523 69.7727C422.28 71.1061 420.523 72.9091 419.25 75.1818C417.977 77.4242 417.326 79.9242 417.295 82.6818V94.0909C417.295 97.5455 417.932 100.53 419.205 103.045C420.508 105.561 422.341 107.5 424.705 108.864C427.068 110.227 429.871 110.909 433.114 110.909C435.265 110.909 437.235 110.606 439.023 110C440.811 109.394 442.341 108.485 443.614 107.273C444.886 106.061 445.856 104.576 446.523 102.818L464.432 104C463.523 108.303 461.659 112.061 458.841 115.273C456.053 118.455 452.447 120.939 448.023 122.727C443.629 124.485 438.553 125.364 432.795 125.364ZM507.466 124V30.9091H570.193V47.1364H527.148V69.3182H566.966V85.5455H527.148V107.773H570.375V124H507.466ZM601.659 54.1818L614.477 78.5909L627.614 54.1818H647.477L627.25 89.0909L648.023 124H628.25L614.477 99.8636L600.932 124H580.932L601.659 89.0909L581.659 54.1818H601.659ZM678.511 125.318C674.057 125.318 670.087 124.545 666.602 123C663.117 121.424 660.36 119.106 658.33 116.045C656.33 112.955 655.33 109.106 655.33 104.5C655.33 100.621 656.042 97.3636 657.466 94.7273C658.89 92.0909 660.83 89.9697 663.284 88.3636C665.739 86.7576 668.527 85.5455 671.648 84.7273C674.799 83.9091 678.102 83.3333 681.557 83C685.617 82.5758 688.89 82.1818 691.375 81.8182C693.86 81.4242 695.663 80.8485 696.784 80.0909C697.905 79.3333 698.466 78.2121 698.466 76.7273V76.4545C698.466 73.5758 697.557 71.3485 695.739 69.7727C693.951 68.197 691.405 67.4091 688.102 67.4091C684.617 67.4091 681.845 68.1818 679.784 69.7273C677.723 71.2424 676.36 73.1515 675.693 75.4545L657.784 74C658.693 69.7576 660.481 66.0909 663.148 63C665.814 59.8788 669.254 57.4848 673.466 55.8182C677.708 54.1212 682.617 53.2727 688.193 53.2727C692.072 53.2727 695.784 53.7273 699.33 54.6364C702.905 55.5455 706.072 56.9545 708.83 58.8636C711.617 60.7727 713.814 63.2273 715.42 66.2273C717.027 69.197 717.83 72.7576 717.83 76.9091V124H699.466V114.318H698.92C697.799 116.5 696.299 118.424 694.42 120.091C692.542 121.727 690.284 123.015 687.648 123.955C685.011 124.864 681.966 125.318 678.511 125.318ZM684.057 111.955C686.905 111.955 689.42 111.394 691.602 110.273C693.784 109.121 695.496 107.576 696.739 105.636C697.981 103.697 698.602 101.5 698.602 99.0455V91.6364C697.996 92.0303 697.163 92.3939 696.102 92.7273C695.072 93.0303 693.905 93.3182 692.602 93.5909C691.299 93.8333 689.996 94.0606 688.693 94.2727C687.39 94.4545 686.208 94.6212 685.148 94.7727C682.875 95.1061 680.89 95.6364 679.193 96.3636C677.496 97.0909 676.178 98.0758 675.239 99.3182C674.299 100.53 673.83 102.045 673.83 103.864C673.83 106.5 674.784 108.515 676.693 109.909C678.633 111.273 681.087 111.955 684.057 111.955ZM732.852 124V54.1818H751.307V66.5H752.125C753.58 62.4091 756.004 59.1818 759.398 56.8182C762.792 54.4545 766.852 53.2727 771.58 53.2727C776.367 53.2727 780.443 54.4697 783.807 56.8636C787.17 59.2273 789.413 62.4394 790.534 66.5H791.261C792.686 62.5 795.261 59.303 798.989 56.9091C802.746 54.4848 807.186 53.2727 812.307 53.2727C818.822 53.2727 824.11 55.3485 828.17 59.5C832.261 63.6212 834.307 69.4697 834.307 77.0455V124H814.989V80.8636C814.989 76.9848 813.958 74.0758 811.898 72.1364C809.837 70.197 807.261 69.2273 804.17 69.2273C800.655 69.2273 797.913 70.3485 795.943 72.5909C793.973 74.803 792.989 77.7273 792.989 81.3636V124H774.216V80.4545C774.216 77.0303 773.231 74.303 771.261 72.2727C769.322 70.2424 766.761 69.2273 763.58 69.2273C761.428 69.2273 759.489 69.7727 757.761 70.8636C756.064 71.9242 754.716 73.4242 753.716 75.3636C752.716 77.2727 752.216 79.5152 752.216 82.0909V124H732.852ZM907.693 74.0909L889.966 75.1818C889.663 73.6667 889.011 72.303 888.011 71.0909C887.011 69.8485 885.693 68.8636 884.057 68.1364C882.451 67.3788 880.527 67 878.284 67C875.284 67 872.754 67.6364 870.693 68.9091C868.633 70.1515 867.602 71.8182 867.602 73.9091C867.602 75.5758 868.269 76.9848 869.602 78.1364C870.936 79.2879 873.223 80.2121 876.466 80.9091L889.102 83.4545C895.89 84.8485 900.951 87.0909 904.284 90.1818C907.617 93.2727 909.284 97.3333 909.284 102.364C909.284 106.939 907.936 110.955 905.239 114.409C902.572 117.864 898.905 120.561 894.239 122.5C889.602 124.409 884.254 125.364 878.193 125.364C868.951 125.364 861.587 123.439 856.102 119.591C850.648 115.712 847.451 110.439 846.511 103.773L865.557 102.773C866.133 105.591 867.527 107.742 869.739 109.227C871.951 110.682 874.784 111.409 878.239 111.409C881.633 111.409 884.36 110.758 886.42 109.455C888.511 108.121 889.572 106.409 889.602 104.318C889.572 102.561 888.83 101.121 887.375 100C885.92 98.8485 883.678 97.9697 880.648 97.3636L868.557 94.9545C861.739 93.5909 856.663 91.2273 853.33 87.8636C850.027 84.5 848.375 80.2121 848.375 75C848.375 70.5151 849.587 66.6515 852.011 63.4091C854.466 60.1667 857.905 57.6667 862.33 55.9091C866.784 54.1515 871.996 53.2727 877.966 53.2727C886.784 53.2727 893.723 55.1364 898.784 58.8636C903.875 62.5909 906.845 67.6667 907.693 74.0909Z" fill="black"/>
</svg>
